<svg width="64" height="64" viewBox="0 0 64 64" fill="none" xmlns="http://www.w3.org/2000/svg">
  <rect width="64" height="64" rx="16" fill="#050505"/>
  <path d="M32 6L38.6 25.4L58 32L38.6 38.6L32 58L25.4 38.6L6 32L25.4 25.4L32 6Z" fill="#1F8A5E"/>
  <path d="M32 14L36.3 27.7L50 32L36.3 36.3L32 50L27.7 36.3L14 32L27.7 27.7L32 14Z" fill="#5ED1AE"/>
  <path d="M32 23L34.5 29.5L41 32L34.5 34.5L32 41L29.5 34.5L23 32L29.5 29.5L32 23Z" fill="#FFFFFF"/>
  <path d="M32 6L38.6 25.4L58 32L38.6 38.6L32 58L25.4 38.6L6 32L25.4 25.4L32 6Z" stroke="#FFFFFF" stroke-opacity="0.18" stroke-width="1.5"/>
</svg>
