<?xml version="1.0" encoding="UTF-8"?>
<svg id="Layer_2" data-name="Layer 2" xmlns="http://www.w3.org/2000/svg" viewBox="0 0 47.55 47.15">
  <defs>
    <style>
      .cls-1 {
        fill: #4a9e7b;
      }
    </style>
  </defs>
  <g id="Layer_1-2" data-name="Layer 1">
    <g>
      <path class="cls-1" d="M47.55,15.35l-10.91-3.52c-1.89.58-3.61,1.62-5.13,3.12-1.75,1.78-2.86,3.82-3.36,6.12l7.72,2.51-7.85,2.54c.42,2.55,1.57,4.79,3.48,6.7,1.28,1.26,2.69,2.19,4.23,2.8l11.82-3.82V15.35Z"/>
      <path class="cls-1" d="M17.95,33.32c-1.25-2.97-1.87-6.1-1.87-9.41s.62-6.44,1.87-9.41c1.13-2.7,2.71-5.09,4.7-7.19L0,0v11.96l4.82,1.63c1.36,1.27,2.42,2.79,3.19,4.55.72,1.72,1.09,3.53,1.09,5.44s-.36,3.71-1.09,5.43c-.77,1.77-1.83,3.28-3.19,4.55l-4.82,1.56v12.02l22.17-7.16c-1.76-1.97-3.17-4.19-4.22-6.67Z"/>
    </g>
  </g>
</svg>